<svg xmlns="http://www.w3.org/2000/svg" viewBox="82.263 125.424 97.944 110.4">
  <path id="a9afa624-d143-4da3-9790-afb66062e65a-241" data-name="Path 2429" d="M 144.501 221.151 C 144.501 229.254 138.255 235.824 130.551 235.824 C 122.847 235.824 116.601 229.254 116.601 221.151 C 116.601 220.967 116.604 220.785 116.611 220.602 C 116.753 212.501 123.114 206.056 130.817 206.207 C 138.519 206.359 144.647 213.049 144.503 221.151 L 144.501 221.151 Z" fill="#6c63ff" style=""/>
  <path id="e3bc7ff1-d70c-4de9-8a31-9e1cd8f5d93e-242" data-name="Path 2431" d="M 125.639 227.668 L 121.621 222.27 L 122.572 221.55 L 125.846 225.947 L 138.732 215.325 L 139.485 216.253 L 125.639 227.668 Z" fill="#fff" style=""/>
  <path d="M 84.127 141.273 C 83.128 141.274 82.505 142.365 83.006 143.237 C 83.238 143.64 83.665 143.888 84.127 143.889 L 178.909 143.889 C 179.909 143.887 180.531 142.796 180.03 141.925 C 179.798 141.522 179.371 141.274 178.909 141.273 L 84.127 141.273 Z" fill="#ccc" style=""/>
  <path d="M 84.127 149.121 C 83.128 149.121 82.502 150.21 83.002 151.083 C 83.233 151.486 83.659 151.735 84.122 151.737 L 144.044 151.737 C 145.043 151.737 145.667 150.647 145.168 149.775 C 144.936 149.37 144.508 149.121 144.044 149.121 L 84.127 149.121 Z" fill="#ccc" style=""/>
  <path id="baa6ea24-e79a-410b-95a0-90b7a92ae1c1-253" data-name="Path 2429" d="M 177.721 131.274 C 177.721 134.446 175.277 137.016 172.261 137.016 C 169.246 137.016 166.802 134.446 166.802 131.274 C 166.802 131.202 166.802 131.13 166.805 131.06 C 166.861 127.888 169.351 125.366 172.365 125.425 C 175.38 125.484 177.778 128.103 177.722 131.274 L 177.721 131.274 Z" fill="#6c63ff" style=""/>
  <path id="a0820f47-ad40-463a-872c-13bb80005143-254" data-name="Path 2431" d="M 170.339 133.824 L 168.766 131.711 L 169.139 131.43 L 170.419 133.151 L 175.464 128.994 L 175.758 129.357 L 170.339 133.824 Z" fill="#fff" style=""/>
  <path d="M 83.564 165.614 C 82.565 165.616 81.942 166.707 82.443 167.579 C 82.675 167.981 83.102 168.23 83.564 168.231 L 178.346 168.231 C 179.346 168.229 179.968 167.138 179.467 166.267 C 179.235 165.864 178.808 165.616 178.346 165.614 L 83.564 165.614 Z" fill="#ccc" style=""/>
  <path d="M 83.564 173.463 C 82.565 173.462 81.939 174.552 82.439 175.424 C 82.67 175.828 83.096 176.077 83.559 176.079 L 143.481 176.079 C 144.48 176.079 145.104 174.988 144.605 174.117 C 144.373 173.712 143.945 173.463 143.481 173.463 L 83.564 173.463 Z" fill="#ccc" style=""/>
  <path id="b63fc892-67cf-40d0-9003-f173040a559c-255" data-name="Path 2429" d="M 176.74 155.615 C 176.74 158.787 174.296 161.358 171.28 161.358 C 168.265 161.358 165.821 158.787 165.821 155.615 C 165.821 155.544 165.821 155.472 165.824 155.401 C 165.88 152.23 168.37 149.707 171.384 149.767 C 174.399 149.826 176.797 152.445 176.741 155.615 L 176.74 155.615 Z" fill="#6c63ff" style=""/>
  <path id="b8e61bbe-38fc-40ac-ac8c-5bb63bac7af2-256" data-name="Path 2431" d="M 169.358 158.166 L 167.785 156.053 L 168.158 155.771 L 169.438 157.493 L 174.483 153.335 L 174.777 153.698 L 169.358 158.166 Z" fill="#fff" style=""/>
  <path d="M 84.127 187.704 C 83.128 187.706 82.505 188.797 83.006 189.668 C 83.238 190.071 83.665 190.319 84.127 190.32 L 178.909 190.32 C 179.909 190.319 180.531 189.228 180.03 188.357 C 179.798 187.953 179.371 187.705 178.909 187.704 L 84.127 187.704 Z" fill="#ccc" style=""/>
  <path d="M 84.127 195.553 C 83.128 195.552 82.502 196.641 83.002 197.514 C 83.233 197.917 83.659 198.167 84.122 198.168 L 144.044 198.168 C 145.043 198.168 145.667 197.078 145.168 196.206 C 144.936 195.802 144.508 195.553 144.044 195.553 L 84.127 195.553 Z" fill="#ccc" style=""/>
  <path id="f67391c6-f0f4-4d09-a78c-675b0edf0c3b-257" data-name="Path 2429" d="M 177.303 177.705 C 177.303 180.877 174.859 183.448 171.843 183.448 C 168.828 183.448 166.384 180.877 166.384 177.705 C 166.384 177.634 166.384 177.562 166.387 177.491 C 166.443 174.319 168.933 171.797 171.947 171.856 C 174.962 171.915 177.36 174.534 177.304 177.705 L 177.303 177.705 Z" fill="#6c63ff" style=""/>
  <path id="e94ecbaf-2ca7-4fd5-871d-ab097a8f2c0d-258" data-name="Path 2431" d="M 169.921 180.255 L 168.348 178.143 L 168.721 177.861 L 170.001 179.582 L 175.046 175.425 L 175.34 175.788 L 169.921 180.255 Z" fill="#fff" style=""/>
  <path d="M 165.347 193.492 L 91.308 193.492 C 90.271 193.492 89.624 192.37 90.142 191.472 C 90.382 191.056 90.826 190.799 91.308 190.799 L 165.347 190.799 C 166.383 190.799 167.031 191.921 166.513 192.818 C 166.273 193.234 165.828 193.492 165.347 193.492 Z" fill="#e5e5e5" style=""/>
</svg>
