<?xml version="1.0" encoding="utf-8"?>
<svg viewBox="272.255 326.89 126.969 23.448" xmlns="http://www.w3.org/2000/svg">
  <path d="M 338.288 192.982 L 338.288 184.894 L 335.399 184.894 L 335.399 183.247 L 343.136 183.247 L 343.136 184.894 L 340.253 184.894 L 340.253 192.982 Z M 352.165 192.982 L 350.027 192.982 L 349.177 190.771 L 345.286 190.771 L 344.482 192.982 L 342.397 192.982 L 346.189 183.247 L 348.267 183.247 Z M 348.546 189.13 L 347.205 185.518 L 345.89 189.13 Z M 352.706 189.814 L 354.618 189.628 Q 354.791 190.591 355.319 191.043 Q 355.847 191.495 356.743 191.495 Q 357.693 191.495 358.174 191.093 Q 358.656 190.691 358.656 190.153 Q 358.656 189.808 358.453 189.565 Q 358.251 189.323 357.746 189.144 Q 357.401 189.024 356.172 188.719 Q 354.592 188.327 353.954 187.756 Q 353.058 186.952 353.058 185.797 Q 353.058 185.053 353.479 184.406 Q 353.901 183.758 354.695 183.42 Q 355.488 183.081 356.61 183.081 Q 358.443 183.081 359.37 183.884 Q 360.296 184.688 360.342 186.029 L 358.377 186.116 Q 358.251 185.365 357.836 185.037 Q 357.421 184.708 356.59 184.708 Q 355.734 184.708 355.249 185.06 Q 354.937 185.286 354.937 185.664 Q 354.937 186.009 355.229 186.255 Q 355.601 186.567 357.035 186.906 Q 358.47 187.245 359.157 187.606 Q 359.844 187.968 360.233 188.596 Q 360.621 189.223 360.621 190.146 Q 360.621 190.983 360.156 191.714 Q 359.692 192.444 358.842 192.799 Q 357.992 193.155 356.723 193.155 Q 354.877 193.155 353.888 192.301 Q 352.898 191.448 352.706 189.814 Z M 362.303 192.982 L 362.303 183.247 L 364.268 183.247 L 364.268 187.57 L 368.239 183.247 L 370.882 183.247 L 367.217 187.039 L 371.081 192.982 L 368.538 192.982 L 365.862 188.413 L 364.268 190.04 L 364.268 192.982 Z M 375.876 192.982 L 375.876 183.247 L 377.841 183.247 L 377.841 187.078 L 381.693 187.078 L 381.693 183.247 L 383.659 183.247 L 383.659 192.982 L 381.693 192.982 L 381.693 188.725 L 377.841 188.725 L 377.841 192.982 Z M 385.697 192.982 L 385.697 183.247 L 392.915 183.247 L 392.915 184.894 L 387.662 184.894 L 387.662 187.052 L 392.55 187.052 L 392.55 188.692 L 387.662 188.692 L 387.662 191.342 L 393.101 191.342 L 393.101 192.982 Z M 394.765 192.982 L 394.765 183.247 L 398.902 183.247 Q 400.463 183.247 401.17 183.509 Q 401.877 183.771 402.302 184.442 Q 402.727 185.113 402.727 185.976 Q 402.727 187.072 402.083 187.786 Q 401.439 188.5 400.158 188.686 Q 400.795 189.057 401.21 189.502 Q 401.625 189.947 402.329 191.083 L 403.518 192.982 L 401.167 192.982 L 399.746 190.864 Q 398.989 189.728 398.71 189.433 Q 398.431 189.137 398.119 189.028 Q 397.807 188.918 397.129 188.918 L 396.731 188.918 L 396.731 192.982 Z M 396.731 187.364 L 398.185 187.364 Q 399.6 187.364 399.952 187.245 Q 400.304 187.125 400.503 186.833 Q 400.702 186.541 400.702 186.102 Q 400.702 185.611 400.44 185.309 Q 400.177 185.007 399.699 184.927 Q 399.46 184.894 398.265 184.894 L 396.731 184.894 Z" transform="matrix(1.544312, 0, 0, 1.560607, -245.254456, 44.90572)" style="fill: rgb(204, 204, 204); stroke: rgb(255, 0, 0); stroke-opacity: 0.26; stroke-width: 0px; white-space: pre;"/>
  <path transform="matrix(1.544312, 0, 0, 1.560607, -245.254456, 44.90572)" style="fill: rgb(51, 51, 51); white-space: pre;"/>
  <circle cx="209.498" cy="232.909" r="8.063" style="fill: rgb(204, 204, 204);" transform="matrix(1.078329, 0, 0, 1.085427, 160.632965, 85.533478)"/>
  <path d="M 385.447 341.517 C 385.249 341.517 385.044 341.449 384.881 341.332 L 384.867 341.316 L 382.721 339.662 C 382.138 339.21 382.255 338.308 382.937 338.019 C 383.252 337.888 383.62 337.937 383.883 338.135 L 385.277 339.21 L 388.553 334.913 C 388.884 334.479 389.483 334.409 389.9 334.726 L 389.881 334.761 L 389.9 334.726 C 390.312 335.048 390.396 335.647 390.063 336.066 L 386.209 341.151 C 386.025 341.384 385.743 341.517 385.447 341.517 Z" style="fill: rgb(63, 61, 86);"/>
</svg>