<?xml version="1.0" encoding="utf-8"?>
<svg viewBox="97.98 339.047 174.226 32.507" xmlns="http://www.w3.org/2000/svg">
  <path d="M 338.288 192.982 L 338.288 184.894 L 335.399 184.894 L 335.399 183.247 L 343.136 183.247 L 343.136 184.894 L 340.253 184.894 L 340.253 192.982 Z M 352.167 192.982 L 350.029 192.982 L 349.179 190.771 L 345.288 190.771 L 344.484 192.982 L 342.399 192.982 L 346.191 183.247 L 348.269 183.247 Z M 348.548 189.13 L 347.207 185.518 L 345.892 189.13 Z M 352.714 189.814 L 354.626 189.628 Q 354.799 190.591 355.327 191.043 Q 355.855 191.494 356.751 191.494 Q 357.701 191.494 358.182 191.093 Q 358.664 190.691 358.664 190.153 Q 358.664 189.808 358.461 189.565 Q 358.258 189.323 357.754 189.144 Q 357.408 189.024 356.18 188.719 Q 354.599 188.327 353.962 187.756 Q 353.065 186.952 353.065 185.797 Q 353.065 185.053 353.487 184.406 Q 353.909 183.758 354.702 183.419 Q 355.496 183.081 356.618 183.081 Q 358.451 183.081 359.377 183.884 Q 360.304 184.688 360.35 186.029 L 358.385 186.116 Q 358.258 185.365 357.843 185.036 Q 357.428 184.708 356.598 184.708 Q 355.742 184.708 355.257 185.06 Q 354.945 185.285 354.945 185.664 Q 354.945 186.009 355.237 186.255 Q 355.609 186.567 357.043 186.906 Q 358.478 187.244 359.165 187.606 Q 359.852 187.968 360.241 188.596 Q 360.629 189.223 360.629 190.146 Q 360.629 190.983 360.164 191.714 Q 359.699 192.444 358.849 192.799 Q 357.999 193.155 356.731 193.155 Q 354.885 193.155 353.896 192.301 Q 352.906 191.448 352.714 189.814 Z M 362.306 192.982 L 362.306 183.247 L 364.271 183.247 L 364.271 187.57 L 368.242 183.247 L 370.885 183.247 L 367.22 187.039 L 371.084 192.982 L 368.541 192.982 L 365.865 188.413 L 364.271 190.04 L 364.271 192.982 Z M 375.879 192.982 L 375.879 183.247 L 377.845 183.247 L 377.845 187.078 L 381.697 187.078 L 381.697 183.247 L 383.662 183.247 L 383.662 192.982 L 381.697 192.982 L 381.697 188.725 L 377.845 188.725 L 377.845 192.982 Z M 385.696 192.982 L 385.696 183.247 L 392.914 183.247 L 392.914 184.894 L 387.661 184.894 L 387.661 187.052 L 392.549 187.052 L 392.549 188.692 L 387.661 188.692 L 387.661 191.342 L 393.1 191.342 L 393.1 192.982 Z M 394.77 192.982 L 394.77 183.247 L 398.907 183.247 Q 400.467 183.247 401.175 183.509 Q 401.882 183.771 402.307 184.442 Q 402.732 185.113 402.732 185.976 Q 402.732 187.072 402.088 187.786 Q 401.444 188.5 400.162 188.685 Q 400.8 189.057 401.215 189.502 Q 401.63 189.947 402.334 191.083 L 403.522 192.982 L 401.171 192.982 L 399.75 190.864 Q 398.993 189.728 398.714 189.433 Q 398.435 189.137 398.123 189.027 Q 397.811 188.918 397.134 188.918 L 396.735 188.918 L 396.735 192.982 Z M 396.735 187.364 L 398.19 187.364 Q 399.604 187.364 399.956 187.244 Q 400.308 187.125 400.507 186.833 Q 400.707 186.541 400.707 186.102 Q 400.707 185.611 400.444 185.309 Q 400.182 185.007 399.704 184.927 Q 399.465 184.894 398.269 184.894 L 396.735 184.894 Z" transform="matrix(2.119129, 0, 0, 2.14149, -612.154907, -48.109074)" style="fill: rgb(47, 46, 65); stroke: rgb(255, 0, 0); stroke-opacity: 0.26; stroke-width: 0px; white-space: pre;"/>
  <path transform="matrix(2.119129, 0, 0, 2.14149, -612.154907, -48.109074)" style="fill: rgb(51, 51, 51); white-space: pre;"/>
  <circle cx="209.498" cy="232.909" r="8.063" style="fill: rgb(63, 61, 86);" transform="matrix(1.4797, 0, 0, 1.489439, -55.189899, 7.640954)"/>
  <path d="M 253.301 358.905 C 253.03 358.905 252.748 358.812 252.524 358.652 L 252.505 358.63 L 249.56 356.359 C 248.761 355.739 248.921 354.502 249.858 354.105 C 250.289 353.926 250.795 353.993 251.156 354.265 L 253.068 355.739 L 257.564 349.843 C 258.018 349.248 258.84 349.152 259.412 349.587 L 259.386 349.635 L 259.412 349.587 C 259.978 350.028 260.093 350.85 259.636 351.426 L 254.347 358.403 C 254.094 358.722 253.707 358.905 253.301 358.905 Z" fill="#fff" style=""/>
</svg>