<?xml version="1.0" encoding="utf-8"?>
<svg viewBox="10.479 229.808 255.395 260.36" xmlns="http://www.w3.org/2000/svg">
  <path d="M 265.518 490.168 L 10.834 490.168 C 10.553 490.168 10.386 489.765 10.534 489.451 C 10.601 489.304 10.706 489.221 10.834 489.221 L 265.518 489.221 C 265.799 489.221 265.968 489.624 265.818 489.937 C 265.757 490.081 265.649 490.168 265.518 490.168 Z" fill="#3f3d56" style=""/>
  <circle cx="270.212" cy="207.449" r="2.689" style="fill: rgb(63, 61, 86);" transform="matrix(2.456798, 0, 0, 2.47296, -440.114563, -196.177094)"/>
  <path d="M 223.097 319.381 C 222.949 319.381 222.809 319.339 222.66 319.236 L 221.11 318.038 C 220.714 317.705 220.788 317.056 221.259 316.871 C 221.515 316.767 221.763 316.8 221.937 316.945 L 222.949 317.705 L 225.333 314.624 C 225.585 314.294 226.022 314.258 226.308 314.476 C 226.594 314.691 226.667 315.132 226.445 315.451 L 223.635 319.125 C 223.494 319.307 223.313 319.381 223.097 319.381 Z" fill="#fff" style=""/>
  <circle cx="270.212" cy="216.677" r="2.689" style="fill: rgb(63, 61, 86);" transform="matrix(2.456798, 0, 0, 2.47296, -440.114563, -199.529739)"/>
  <path d="M 223.097 338.85 C 222.949 338.85 222.809 338.772 222.66 338.694 L 221.11 337.493 C 220.714 337.175 220.788 336.485 221.259 336.299 C 221.515 336.191 221.763 336.225 221.937 336.377 L 222.949 337.175 L 225.333 334.049 C 225.585 333.72 226.022 333.69 226.308 333.904 L 226.308 333.941 L 226.308 333.904 C 226.594 334.153 226.667 334.597 226.445 334.884 L 223.635 338.553 C 223.494 338.735 223.313 338.85 223.097 338.85 Z" fill="#fff" style=""/>
  <circle cx="271.919" cy="227.331" r="2.689" style="fill: rgb(63, 61, 86);" transform="matrix(2.456798, 0, 0, 2.47296, -440.730682, -203.400452)"/>
  <path d="M 226.667 361.326 C 226.49 361.326 226.341 361.284 226.238 361.178 L 224.681 359.98 C 224.254 359.653 224.32 358.998 224.829 358.823 C 225.044 358.708 225.333 358.745 225.515 358.894 L 226.527 359.653 L 228.903 356.573 C 229.118 356.24 229.551 356.203 229.878 356.424 L 229.841 356.458 L 229.878 356.424 C 230.163 356.636 230.241 357.077 229.988 357.407 L 227.208 361.073 C 227.065 361.247 226.845 361.326 226.667 361.326 Z" fill="#fff" style=""/>
  <path d="M 255.894 390.452 C 243.264 337.107 253.799 289.999 258.922 272.201 C 260.219 267.627 256.828 263.045 252.065 263.045 L 129.577 263.045 C 127.304 263.082 125.18 264.175 123.838 266.029 C 118.893 272.85 108.613 295.555 120.086 358.345 C 126.221 391.942 126.107 414.852 124.123 429.958 C 123.011 438.458 121.28 444.452 119.693 448.526 L 119.545 448.956 C 119.182 449.754 119.042 450.665 119.005 451.54 C 119.005 453.571 119.835 455.491 121.317 456.841 C 121.822 457.312 122.358 457.671 122.94 457.964 C 123.404 458.22 123.953 458.438 124.491 458.55 C 125.032 458.688 125.569 458.757 126.147 458.757 L 246.726 458.757 C 246.763 458.757 246.8 458.757 246.867 458.757 C 247.635 458.757 251.672 458.55 255.312 454.113 C 260.876 447.396 265.454 430.873 255.894 390.452 Z M 254.448 453.283 C 250.833 457.638 246.945 457.524 246.763 457.524 L 126.147 457.524 C 124.16 457.524 122.321 456.552 121.243 454.917 C 120.268 453.494 119.983 451.751 120.413 450.086 C 120.487 449.864 120.557 449.612 120.661 449.393 C 122.436 444.737 123.767 439.948 124.631 435.051 C 127.486 419.326 128.023 395.068 121.28 358.13 C 109.914 295.807 119.983 273.435 124.813 266.718 C 125.936 265.194 127.704 264.279 129.577 264.279 L 252.065 264.279 C 255.997 264.279 258.851 268.06 257.766 271.883 C 252.613 289.746 242.036 337.107 254.737 390.744 C 264.157 430.618 259.786 446.736 254.448 453.283 Z" style="fill: rgb(63, 61, 86);"/>
  <path d="M 197.697 321.152 L 134.588 321.152 C 130.874 321.152 128.531 317.094 130.41 313.857 C 131.27 312.333 132.857 311.426 134.588 311.426 L 197.697 311.426 C 201.444 311.426 203.755 315.451 201.882 318.72 C 201.015 320.208 199.432 321.152 197.697 321.152 Z" fill="#ccc" style=""/>
  <path d="M 197.697 342.112 L 134.588 342.112 C 130.874 342.112 128.531 338.082 130.41 334.813 C 131.27 333.322 132.857 332.381 134.588 332.381 L 197.697 332.381 C 201.444 332.381 203.755 336.448 201.882 339.68 C 201.015 341.196 199.432 342.112 197.697 342.112 Z" fill="#ccc" style=""/>
  <path d="M 202.78 363.617 L 139.678 363.617 C 135.963 363.617 133.613 359.543 135.493 356.314 C 136.356 354.786 137.947 353.878 139.678 353.878 L 202.78 353.878 C 206.494 353.878 208.848 357.907 206.969 361.178 C 206.105 362.671 204.514 363.617 202.78 363.617 Z" fill="#ccc" style=""/>
  <path d="M 206.356 386.132 L 143.248 386.132 C 139.497 386.132 137.191 382.059 139.03 378.789 C 139.897 377.303 141.517 376.365 143.248 376.365 L 206.356 376.365 C 210.074 376.365 212.38 380.432 210.535 383.698 C 209.674 385.188 208.087 386.132 206.356 386.132 Z" fill="#ccc" style=""/>
  <path d="M 206.356 283.352 L 161.042 283.352 C 157.291 283.352 154.977 279.289 156.82 276.053 C 157.679 274.525 159.31 273.617 161.042 273.617 L 206.356 273.617 C 210.105 273.617 212.417 277.654 210.579 280.92 C 209.712 282.414 208.087 283.352 206.356 283.352 Z" style="fill: rgb(63, 61, 86);"/>
  <circle cx="273.846" cy="237.988" r="2.689" fill="#ccc" style="" transform="matrix(2.456798, 0, 0, 2.47296, -441.426239, -207.272308)"/>
  <path d="M 209.386 408.101 L 146.277 408.101 C 142.562 408.101 140.219 404.068 142.099 400.805 C 142.962 399.312 144.549 398.366 146.277 398.366 L 209.386 398.366 C 213.1 398.366 215.447 402.436 213.574 405.669 C 212.703 407.197 211.117 408.101 209.386 408.101 Z" fill="#ccc" style=""/>
  <circle cx="275.308" cy="248.403" r="2.689" fill="#ccc" style="" transform="matrix(2.456798, 0, 0, 2.47296, -441.953979, -211.056229)"/>
  <polygon points="24.098 474.433 31.1 476.284 41.527 449.949 31.19 447.212 24.098 474.433" fill="#a0616a" style=""/>
  <path d="M 21.93 481.729 L 43.468 487.431 L 43.542 487.159 C 44.757 482.49 41.991 477.717 37.361 476.489 L 34.208 472.444 L 26.083 473.505 L 24.206 473.01 L 21.93 481.729 Z" fill="#2f2e41" style=""/>
  <polygon points="59.999 479.715 67.245 479.715 70.689 451.57 59.999 451.57 59.999 479.715" fill="#a0616a" style=""/>
  <path d="M 59.747 487.325 L 82.018 487.322 L 82.018 487.041 C 82.018 482.219 78.136 478.308 73.349 478.305 L 73.346 478.305 L 69.282 475.2 L 61.691 478.308 L 59.747 478.308 L 59.747 487.325 Z" fill="#2f2e41" style=""/>
  <path d="M 41.892 345.029 C 40.14 347.228 41.016 354.72 41.016 354.72 C 41.016 354.72 37.952 378.958 39.267 381.164 C 40.578 383.364 38.39 385.126 37.079 388.211 C 35.765 391.297 34.454 398.789 34.454 398.789 C 27.02 404.957 27.458 433.159 27.458 433.159 L 24.833 458.276 C 25.709 460.923 37.952 461.364 39.705 460.923 C 41.454 460.485 58.509 398.351 58.509 398.351 C 58.509 398.351 57.633 458.276 57.633 460.923 C 57.633 463.567 69.442 462.247 72.067 462.247 C 74.692 462.247 91.31 354.279 91.31 354.279 L 91.31 348.111 L 89.119 345.029 C 89.119 345.029 43.638 342.825 41.892 345.029 Z" fill="#2f2e41" style=""/>
  <circle cx="305.521" cy="73.966" r="6.398" fill="#a0616a" style="" transform="matrix(2.119129, 0, 0, 2.135319, -586.304932, 92.783188)"/>
  <path d="M 42.918 354.771 L 42.845 354.669 C 38.896 349.096 44.834 335.708 45.732 333.77 C 43.539 333.047 42.151 330.873 42.419 328.564 L 42.806 325.255 L 43.209 322.013 L 40.328 319.106 L 40.319 319.036 L 38.659 304.401 L 36.245 294.68 C 34.394 287.204 36.689 279.297 42.256 274.002 L 47.833 273.113 L 54.612 266.529 L 65.544 266.529 L 69.291 270.139 C 76.659 276.224 78.411 273.583 86.718 285.04 L 80.767 300.832 L 84.096 324.129 L 84.096 328.341 L 85.826 330.285 C 87.095 331.701 87.62 333.636 87.249 335.506 L 87.022 336.651 C 88.806 337.422 90.111 339.024 90.52 340.933 L 91.127 343.794 C 91.645 344.488 95.083 349.102 95.083 350.362 C 95.083 350.554 94.942 350.736 94.648 350.944 C 92.304 352.536 79.367 355.795 73.64 353.486 C 67.539 351.024 43.289 354.711 43.046 354.752 L 42.918 354.771 Z" fill="#3f3d56" style=""/>
  <path d="M 36.031 299.358 L 47.302 297.133 C 51.472 303.406 53.71 320.561 53.71 320.561 L 66.171 346.602 C 69.509 348.648 69.4 353.563 65.976 355.452 C 62.551 357.342 58.381 354.787 58.468 350.858 C 58.471 350.81 58.474 350.759 58.474 350.714 L 42.218 319.858 L 36.031 299.358 Z" fill="#a0616a" style=""/>
  <path d="M 35.967 302.051 L 35.647 285.168 L 40.952 278.018 C 43.084 275.162 46.647 273.778 50.132 274.437 C 54.935 275.386 58.186 279.92 57.576 284.813 C 56.671 291.959 54.631 300.903 50.004 302.927 L 49.956 302.949 L 54.752 319.842 L 36.974 322.345 L 35.967 302.051 Z" fill="#3f3d56" style=""/>
  <path d="M 102.917 300.56 C 102.917 300.56 89.388 289.906 82.053 288.375 L 75.559 297.926 L 93.119 308.769 L 127.314 318.732 C 129.926 321.655 134.697 320.631 135.906 316.893 C 137.111 313.149 133.846 309.491 130.029 310.307 C 129.99 310.316 129.955 310.326 129.923 310.332 L 102.917 300.56 Z" fill="#a0616a" style=""/>
  <path d="M 79.114 302.7 L 65.016 293.574 L 62.075 285.148 C 60.907 281.775 61.745 278.024 64.233 275.473 C 67.686 271.984 73.234 271.783 76.927 275.022 C 82.318 279.751 89.27 281.334 88.365 286.335 L 90.958 286.715 L 104.237 296.877 L 96.406 313.149 L 79.114 302.7 Z" fill="#3f3d56" style=""/>
  <path d="M 45.758 241.745 C 47.276 239.376 50.135 237.793 52.904 238.234 C 53.988 230.746 62.714 227.241 68.614 231.935 C 68.834 232.114 69.052 232.306 69.259 232.498 C 70.129 231.884 71.255 231.766 72.23 232.2 C 73.183 232.635 74.011 233.307 74.641 234.151 C 77.877 238.218 78.631 243.75 76.607 248.553 C 76.943 247.312 75.712 246.142 74.465 245.867 C 73.221 245.585 71.913 245.851 70.65 245.672 C 69.029 245.438 67.571 244.489 65.953 244.274 C 64.575 244.188 63.197 244.364 61.889 244.805 C 60.581 245.243 59.203 245.429 57.828 245.352 C 56.463 245.192 54.704 250.404 54.73 254.075 C 54.733 254.769 54.592 255.664 53.918 255.811 C 53.086 255.993 52.604 254.839 51.814 254.522 C 51.053 254.305 50.263 254.727 50.017 255.482 C 49.815 256.233 49.985 257.036 50.474 257.634 C 50.96 258.225 51.539 258.727 52.185 259.13 L 51.858 259.402 C 51.315 260.128 50.189 260.156 49.412 259.709 C 48.664 259.2 48.057 258.507 47.654 257.691 C 46.208 255.271 44.939 252.69 44.431 249.915 C 43.919 247.136 44.232 244.121 45.758 241.745 Z" fill="#2f2e41" style=""/>
</svg>