<?xml version="1.0" encoding="utf-8"?>
<svg viewBox="211.429 213.427 186.119 189.737" xmlns="http://www.w3.org/2000/svg">
  <path d="M 397.288 403.164 L 211.688 403.164 C 211.483 403.164 211.362 402.87 211.469 402.642 C 211.518 402.535 211.595 402.474 211.688 402.474 L 397.288 402.474 C 397.493 402.474 397.617 402.768 397.507 402.996 C 397.463 403.101 397.383 403.164 397.288 403.164 Z" fill="#3f3d56" style=""/>
  <circle cx="270.212" cy="207.449" r="2.689" style="fill: rgb(204, 204, 204);" transform="matrix(1.79054, 0, 0, 1.80232, -116.178154, -96.616859)"/>
  <path d="M 367.18 279.127 C 367.072 279.127 366.97 279.097 366.861 279.022 L 365.732 278.15 C 365.443 277.906 365.497 277.433 365.841 277.299 C 366.026 277.222 366.207 277.247 366.335 277.352 L 367.072 277.906 L 368.809 275.66 C 368.993 275.42 369.312 275.394 369.519 275.553 C 369.728 275.709 369.782 276.031 369.619 276.263 L 367.572 278.94 C 367.47 279.073 367.336 279.127 367.18 279.127 Z" style="fill: rgb(63, 61, 86);"/>
  <circle cx="270.212" cy="216.677" r="2.689" style="fill: rgb(204, 204, 204);" transform="matrix(1.79054, 0, 0, 1.80232, -116.178154, -99.060295)"/>
  <path d="M 367.18 293.316 C 367.072 293.316 366.97 293.26 366.861 293.203 L 365.732 292.327 C 365.443 292.095 365.497 291.593 365.841 291.458 C 366.026 291.38 366.207 291.404 366.335 291.515 L 367.072 292.095 L 368.809 289.818 C 368.993 289.577 369.312 289.556 369.519 289.713 L 369.519 289.74 L 369.519 289.713 C 369.728 289.894 369.782 290.218 369.619 290.426 L 367.572 293.101 C 367.47 293.233 367.336 293.316 367.18 293.316 Z" style="fill: rgb(63, 61, 86);"/>
  <circle cx="271.919" cy="227.331" r="2.689" style="fill: rgb(204, 204, 204);" transform="matrix(1.79054, 0, 0, 1.80232, -116.627167, -101.88134)"/>
  <path d="M 369.782 309.697 C 369.652 309.697 369.544 309.668 369.468 309.589 L 368.333 308.716 C 368.023 308.478 368.071 308.001 368.441 307.873 C 368.599 307.79 368.809 307.816 368.942 307.925 L 369.679 308.478 L 371.411 306.234 C 371.568 305.99 371.884 305.964 372.121 306.126 L 372.095 306.15 L 372.121 306.126 C 372.33 306.28 372.387 306.601 372.202 306.841 L 370.176 309.514 C 370.071 309.64 369.911 309.697 369.782 309.697 Z" style="fill: rgb(63, 61, 86);"/>
  <path d="M 391.083 330.925 C 381.878 292.047 389.556 257.713 393.289 244.743 C 394.235 241.408 391.763 238.069 388.291 238.069 L 299.021 238.069 C 297.365 238.096 295.816 238.893 294.839 240.244 C 291.234 245.215 283.743 261.763 292.105 307.525 C 296.576 332.01 296.492 348.708 295.046 359.718 C 294.236 365.912 292.974 370.281 291.818 373.249 L 291.711 373.564 C 291.445 374.145 291.343 374.809 291.315 375.447 C 291.315 376.927 291.92 378.327 293.001 379.31 C 293.369 379.653 293.76 379.915 294.185 380.128 C 294.522 380.315 294.922 380.474 295.314 380.555 C 295.708 380.656 296.1 380.707 296.522 380.707 L 384.401 380.707 C 384.428 380.707 384.455 380.707 384.504 380.707 C 385.063 380.707 388.004 380.555 390.658 377.321 C 394.713 372.426 398.05 360.384 391.083 330.925 Z M 390.029 376.716 C 387.395 379.891 384.56 379.807 384.428 379.807 L 296.522 379.807 C 295.074 379.807 293.734 379.099 292.948 377.908 C 292.237 376.87 292.029 375.601 292.342 374.388 C 292.396 374.226 292.448 374.041 292.523 373.882 C 293.817 370.489 294.788 366.998 295.417 363.429 C 297.497 351.969 297.889 334.289 292.974 307.369 C 284.691 261.947 292.029 245.642 295.549 240.746 C 296.368 239.637 297.656 238.969 299.021 238.969 L 388.291 238.969 C 391.158 238.969 393.238 241.725 392.446 244.51 C 388.691 257.529 380.983 292.047 390.24 331.139 C 397.105 360.198 393.919 371.945 390.029 376.716 Z" style="fill: rgb(63, 61, 86);"/>
  <path d="M 348.668 280.419 L 302.674 280.419 C 299.967 280.419 298.259 277.46 299.628 275.102 C 300.256 273.991 301.412 273.329 302.674 273.329 L 348.668 273.329 C 351.4 273.329 353.082 276.263 351.719 278.646 C 351.086 279.73 349.932 280.419 348.668 280.419 Z" style="fill: rgb(63, 61, 86);"/>
  <path d="M 348.668 295.694 L 302.674 295.694 C 299.967 295.694 298.259 292.758 299.628 290.375 C 300.256 289.288 301.412 288.602 302.674 288.602 L 348.668 288.602 C 351.4 288.602 353.082 291.566 351.719 293.922 C 351.086 295.027 349.932 295.694 348.668 295.694 Z" style="fill: rgb(63, 61, 86);"/>
  <path d="M 352.371 311.367 L 306.383 311.367 C 303.676 311.367 301.963 308.397 303.333 306.045 C 303.962 304.932 305.122 304.27 306.383 304.27 L 352.371 304.27 C 355.079 304.27 356.795 307.206 355.425 309.589 C 354.796 310.678 353.636 311.367 352.371 311.367 Z" style="fill: rgb(63, 61, 86);"/>
  <path d="M 354.979 327.777 L 308.985 327.777 C 306.251 327.777 304.57 324.808 305.91 322.425 C 306.542 321.341 307.724 320.658 308.985 320.658 L 354.979 320.658 C 357.689 320.658 359.37 323.622 358.024 326.002 C 357.398 327.089 356.24 327.777 354.979 327.777 Z" style="fill: rgb(63, 61, 86);"/>
  <path d="M 354.979 252.869 L 321.953 252.869 C 319.219 252.869 317.534 249.908 318.876 247.55 C 319.502 246.437 320.692 245.775 321.953 245.775 L 354.979 245.775 C 357.711 245.775 359.396 248.716 358.056 251.096 C 357.424 252.185 356.24 252.869 354.979 252.869 Z" style="fill: rgb(204, 204, 204);"/>
  <circle cx="273.846" cy="237.988" r="2.689" style="fill: rgb(63, 61, 86);" transform="matrix(1.79054, 0, 0, 1.80232, -117.134079, -104.703163)"/>
  <path d="M 357.187 343.788 L 311.193 343.788 C 308.485 343.788 306.777 340.848 308.147 338.471 C 308.776 337.382 309.933 336.693 311.193 336.693 L 357.187 336.693 C 359.894 336.693 361.604 339.659 360.239 342.015 C 359.604 343.128 358.448 343.788 357.187 343.788 Z" style="fill: rgb(63, 61, 86);"/>
  <circle cx="275.308" cy="248.403" r="2.689" style="fill: rgb(63, 61, 86);" transform="matrix(1.79054, 0, 0, 1.80232, -117.5187, -107.460922)"/>
  <polygon points="221.353 391.697 226.457 393.046 234.055 373.854 226.522 371.86 221.353 391.697" fill="#a0616a" style=""/>
  <path d="M 219.774 397.014 L 235.47 401.169 L 235.523 400.971 C 236.409 397.569 234.393 394.09 231.019 393.195 L 228.722 390.247 L 222.8 391.021 L 221.433 390.66 L 219.774 397.014 Z" style="fill: rgb(204, 204, 204);"/>
  <polygon points="247.517 395.546 252.797 395.546 255.307 375.036 247.517 375.036 247.517 395.546" fill="#a0616a" style=""/>
  <path d="M 247.333 401.092 L 263.563 401.09 L 263.563 400.885 C 263.563 397.371 260.734 394.521 257.245 394.519 L 257.243 394.519 L 254.281 392.256 L 248.75 394.521 L 247.333 394.521 L 247.333 401.092 Z" style="fill: rgb(204, 204, 204);"/>
  <path d="M 235.321 297.394 C 234.044 298.997 234.683 304.457 234.683 304.457 C 234.683 304.457 232.45 322.119 233.408 323.727 C 234.363 325.33 232.769 326.614 231.814 328.863 C 230.856 331.112 229.901 336.571 229.901 336.571 C 224.483 341.066 224.802 361.619 224.802 361.619 L 222.889 379.922 C 223.528 381.852 232.45 382.173 233.727 381.852 C 235.002 381.532 247.431 336.252 247.431 336.252 C 247.431 336.252 246.793 379.922 246.793 381.852 C 246.793 383.779 255.398 382.816 257.311 382.816 C 259.224 382.816 271.334 304.135 271.334 304.135 L 271.334 299.64 L 269.738 297.394 C 269.738 297.394 236.593 295.788 235.321 297.394 Z" style="fill: rgb(204, 204, 204);"/>
  <circle cx="305.521" cy="73.966" r="6.398" fill="#a0616a" style="" transform="matrix(1.544312, 0, 0, 1.55611, -223.477997, 113.570122)"/>
  <path d="M 235.069 304.494 L 235.015 304.419 C 232.138 300.358 236.465 290.601 237.12 289.189 C 235.521 288.662 234.51 287.078 234.705 285.396 L 234.987 282.984 L 235.281 280.621 L 233.182 278.503 L 233.175 278.452 L 231.965 267.786 L 230.206 260.702 C 228.857 255.254 230.53 249.492 234.587 245.633 L 238.65 244.985 L 243.59 240.187 L 251.557 240.187 L 254.288 242.818 C 259.657 247.253 260.934 245.328 266.988 253.677 L 262.652 265.186 L 265.077 282.164 L 265.077 285.232 L 266.338 286.649 C 267.263 287.681 267.645 289.091 267.375 290.454 L 267.209 291.289 C 268.51 291.85 269.46 293.018 269.759 294.409 L 270.201 296.494 C 270.579 297 273.084 300.362 273.084 301.281 C 273.084 301.42 272.981 301.553 272.767 301.705 C 271.059 302.865 261.631 305.24 257.457 303.557 C 253.011 301.763 235.339 304.45 235.162 304.48 L 235.069 304.494 Z" fill="#3f3d56" style=""/>
  <path d="M 230.05 264.112 L 238.264 262.49 C 241.302 267.062 242.933 279.563 242.933 279.563 L 252.014 298.54 C 254.447 300.032 254.368 303.613 251.872 304.99 C 249.376 306.367 246.338 304.505 246.401 301.642 C 246.403 301.607 246.405 301.569 246.405 301.537 L 234.559 279.05 L 230.05 264.112 Z" fill="#a0616a" style=""/>
  <path d="M 230.003 266.074 L 229.77 253.77 L 233.636 248.56 C 235.19 246.479 237.786 245.47 240.326 245.95 C 243.826 246.642 246.196 249.946 245.751 253.511 C 245.091 258.719 243.604 265.237 240.233 266.712 L 240.198 266.728 L 243.693 279.039 L 230.737 280.863 L 230.003 266.074 Z" fill="#3f3d56" style=""/>
  <path d="M 278.793 264.988 C 278.793 264.988 268.934 257.223 263.588 256.107 L 258.856 263.068 L 271.653 270.969 L 296.572 278.23 C 298.476 280.36 301.953 279.614 302.833 276.89 C 303.712 274.162 301.333 271.496 298.551 272.09 C 298.523 272.097 298.497 272.104 298.474 272.109 L 278.793 264.988 Z" fill="#a0616a" style=""/>
  <path d="M 261.447 266.547 L 251.173 259.896 L 249.029 253.756 C 248.179 251.298 248.789 248.564 250.602 246.705 C 253.119 244.163 257.162 244.016 259.853 246.376 C 263.782 249.823 268.848 250.976 268.188 254.621 L 270.078 254.898 L 279.755 262.303 L 274.049 274.162 L 261.447 266.547 Z" fill="#3f3d56" style=""/>
  <path d="M 237.138 222.126 C 238.245 220.399 240.328 219.246 242.346 219.567 C 243.136 214.11 249.495 211.556 253.794 214.977 C 253.955 215.107 254.114 215.247 254.265 215.387 C 254.899 214.94 255.719 214.854 256.43 215.17 C 257.124 215.487 257.728 215.977 258.187 216.592 C 260.545 219.556 261.095 223.587 259.62 227.087 C 259.865 226.183 258.967 225.33 258.059 225.13 C 257.152 224.925 256.199 225.118 255.279 224.988 C 254.097 224.817 253.035 224.125 251.856 223.969 C 250.851 223.906 249.847 224.034 248.894 224.356 C 247.941 224.675 246.937 224.81 245.935 224.755 C 244.94 224.638 243.658 228.436 243.677 231.111 C 243.679 231.617 243.577 232.269 243.085 232.377 C 242.479 232.509 242.127 231.668 241.552 231.438 C 240.997 231.279 240.421 231.587 240.242 232.137 C 240.095 232.684 240.219 233.269 240.575 233.705 C 240.929 234.136 241.351 234.502 241.822 234.795 L 241.584 234.993 C 241.188 235.522 240.368 235.543 239.802 235.217 C 239.256 234.847 238.814 234.341 238.52 233.747 C 237.467 231.983 236.542 230.102 236.171 228.08 C 235.798 226.055 236.027 223.857 237.138 222.126 Z" fill="#2f2e41" style=""/>
</svg>